<mxfile host="65bd71144e">
    <diagram id="XTKtFpx4i2okd6WSvJAe" name="alu_addsub">
        <mxGraphModel dx="425" dy="597" grid="1" gridSize="10" guides="1" tooltips="1" connect="1" arrows="1" fold="1" page="1" pageScale="1" pageWidth="827" pageHeight="1169" math="0" shadow="0">
            <root>
                <mxCell id="0"/>
                <mxCell id="1" parent="0"/>
                <mxCell id="oOCuN6OxVwBM7o2_ogRE-5" style="edgeStyle=none;html=1;exitX=1;exitY=0.5;exitDx=0;exitDy=0;entryX=0.288;entryY=1.017;entryDx=0;entryDy=0;entryPerimeter=0;" parent="1" source="_huagdgDnQkTBqmYhUOn-2" target="oOCuN6OxVwBM7o2_ogRE-2" edge="1">
                    <mxGeometry relative="1" as="geometry"/>
                </mxCell>
                <mxCell id="_huagdgDnQkTBqmYhUOn-2" value="rs1,1'b1" style="text;strokeColor=none;align=center;fillColor=none;html=1;verticalAlign=middle;whiteSpace=wrap;rounded=0;" parent="1" vertex="1">
                    <mxGeometry x="10" y="80" width="60" height="30" as="geometry"/>
                </mxCell>
                <mxCell id="oOCuN6OxVwBM7o2_ogRE-6" style="edgeStyle=none;html=1;exitX=1;exitY=1;exitDx=0;exitDy=0;entryX=0.75;entryY=1;entryDx=0;entryDy=0;" parent="1" source="oOCuN6OxVwBM7o2_ogRE-1" target="oOCuN6OxVwBM7o2_ogRE-2" edge="1">
                    <mxGeometry relative="1" as="geometry"/>
                </mxCell>
                <mxCell id="oOCuN6OxVwBM7o2_ogRE-1" value="rs1,1'b0" style="text;strokeColor=none;align=center;fillColor=none;html=1;verticalAlign=middle;whiteSpace=wrap;rounded=0;" parent="1" vertex="1">
                    <mxGeometry x="10" y="120" width="60" height="30" as="geometry"/>
                </mxCell>
                <mxCell id="oOCuN6OxVwBM7o2_ogRE-2" value="" style="shape=trapezoid;perimeter=trapezoidPerimeter;whiteSpace=wrap;html=1;fixedSize=1;rotation=90;" parent="1" vertex="1">
                    <mxGeometry x="70" y="90" width="120" height="60" as="geometry"/>
                </mxCell>
                <mxCell id="oOCuN6OxVwBM7o2_ogRE-7" style="edgeStyle=none;html=1;exitX=0.5;exitY=1;exitDx=0;exitDy=0;entryX=0;entryY=0.5;entryDx=0;entryDy=0;" parent="1" source="oOCuN6OxVwBM7o2_ogRE-3" target="oOCuN6OxVwBM7o2_ogRE-2" edge="1">
                    <mxGeometry relative="1" as="geometry"/>
                </mxCell>
                <mxCell id="oOCuN6OxVwBM7o2_ogRE-3" value="pld[30] pld[5]" style="text;strokeColor=none;align=center;fillColor=none;html=1;verticalAlign=middle;whiteSpace=wrap;rounded=0;" parent="1" vertex="1">
                    <mxGeometry x="100" y="10" width="60" height="30" as="geometry"/>
                </mxCell>
                <mxCell id="oOCuN6OxVwBM7o2_ogRE-8" style="edgeStyle=none;html=1;exitX=1;exitY=0.333;exitDx=0;exitDy=0;entryX=0.25;entryY=1;entryDx=0;entryDy=0;exitPerimeter=0;" parent="1" source="oOCuN6OxVwBM7o2_ogRE-9" target="oOCuN6OxVwBM7o2_ogRE-12" edge="1">
                    <mxGeometry relative="1" as="geometry"/>
                </mxCell>
                <mxCell id="oOCuN6OxVwBM7o2_ogRE-9" value="~rs2,1'b1" style="text;strokeColor=none;align=center;fillColor=none;html=1;verticalAlign=middle;whiteSpace=wrap;rounded=0;" parent="1" vertex="1">
                    <mxGeometry x="10" y="290" width="60" height="30" as="geometry"/>
                </mxCell>
                <mxCell id="oOCuN6OxVwBM7o2_ogRE-10" style="edgeStyle=none;html=1;exitX=1;exitY=1;exitDx=0;exitDy=0;entryX=0.75;entryY=1;entryDx=0;entryDy=0;" parent="1" source="oOCuN6OxVwBM7o2_ogRE-11" target="oOCuN6OxVwBM7o2_ogRE-12" edge="1">
                    <mxGeometry relative="1" as="geometry"/>
                </mxCell>
                <mxCell id="oOCuN6OxVwBM7o2_ogRE-11" value="rs2,1'b0" style="text;strokeColor=none;align=center;fillColor=none;html=1;verticalAlign=middle;whiteSpace=wrap;rounded=0;" parent="1" vertex="1">
                    <mxGeometry x="10" y="330" width="60" height="30" as="geometry"/>
                </mxCell>
                <mxCell id="oOCuN6OxVwBM7o2_ogRE-18" style="edgeStyle=none;html=1;exitX=0.667;exitY=0;exitDx=0;exitDy=0;entryX=0.25;entryY=1;entryDx=0;entryDy=0;exitPerimeter=0;" parent="1" source="oOCuN6OxVwBM7o2_ogRE-12" target="oOCuN6OxVwBM7o2_ogRE-15" edge="1">
                    <mxGeometry relative="1" as="geometry"/>
                </mxCell>
                <mxCell id="oOCuN6OxVwBM7o2_ogRE-12" value="" style="shape=trapezoid;perimeter=trapezoidPerimeter;whiteSpace=wrap;html=1;fixedSize=1;rotation=90;" parent="1" vertex="1">
                    <mxGeometry x="70" y="300" width="120" height="60" as="geometry"/>
                </mxCell>
                <mxCell id="oOCuN6OxVwBM7o2_ogRE-13" style="edgeStyle=none;html=1;exitX=0.5;exitY=1;exitDx=0;exitDy=0;entryX=0;entryY=0.5;entryDx=0;entryDy=0;" parent="1" source="oOCuN6OxVwBM7o2_ogRE-14" target="oOCuN6OxVwBM7o2_ogRE-12" edge="1">
                    <mxGeometry relative="1" as="geometry"/>
                </mxCell>
                <mxCell id="oOCuN6OxVwBM7o2_ogRE-14" value="pld[30]" style="text;strokeColor=none;align=center;fillColor=none;html=1;verticalAlign=middle;whiteSpace=wrap;rounded=0;" parent="1" vertex="1">
                    <mxGeometry x="100" y="220" width="60" height="30" as="geometry"/>
                </mxCell>
                <mxCell id="oOCuN6OxVwBM7o2_ogRE-15" value="" style="shape=trapezoid;perimeter=trapezoidPerimeter;whiteSpace=wrap;html=1;fixedSize=1;rotation=90;" parent="1" vertex="1">
                    <mxGeometry x="170" y="350" width="120" height="60" as="geometry"/>
                </mxCell>
                <mxCell id="oOCuN6OxVwBM7o2_ogRE-17" style="edgeStyle=none;html=1;exitX=1;exitY=0.25;exitDx=0;exitDy=0;" parent="1" source="oOCuN6OxVwBM7o2_ogRE-16" edge="1">
                    <mxGeometry relative="1" as="geometry">
                        <mxPoint x="199" y="408" as="targetPoint"/>
                    </mxGeometry>
                </mxCell>
                <mxCell id="oOCuN6OxVwBM7o2_ogRE-16" value="imm,1'b0" style="text;strokeColor=none;align=center;fillColor=none;html=1;verticalAlign=middle;whiteSpace=wrap;rounded=0;" parent="1" vertex="1">
                    <mxGeometry x="10" y="400" width="60" height="30" as="geometry"/>
                </mxCell>
                <mxCell id="oOCuN6OxVwBM7o2_ogRE-70" style="edgeStyle=none;html=1;exitX=1;exitY=0.5;exitDx=0;exitDy=0;fontSize=27;" parent="1" source="oOCuN6OxVwBM7o2_ogRE-19" edge="1">
                    <mxGeometry relative="1" as="geometry">
                        <mxPoint x="440" y="230" as="targetPoint"/>
                    </mxGeometry>
                </mxCell>
                <mxCell id="oOCuN6OxVwBM7o2_ogRE-19" value="+" style="rounded=0;whiteSpace=wrap;html=1;fontSize=27;" parent="1" vertex="1">
                    <mxGeometry x="360" y="210" width="40" height="40" as="geometry"/>
                </mxCell>
                <mxCell id="oOCuN6OxVwBM7o2_ogRE-25" value="" style="edgeStyle=segmentEdgeStyle;endArrow=classic;html=1;curved=0;rounded=0;endSize=8;startSize=8;fontSize=27;entryX=0.5;entryY=1;entryDx=0;entryDy=0;" parent="1" target="oOCuN6OxVwBM7o2_ogRE-19" edge="1">
                    <mxGeometry width="50" height="50" relative="1" as="geometry">
                        <mxPoint x="260" y="380" as="sourcePoint"/>
                        <mxPoint x="310" y="330" as="targetPoint"/>
                        <Array as="points">
                            <mxPoint x="380" y="380"/>
                        </Array>
                    </mxGeometry>
                </mxCell>
                <mxCell id="oOCuN6OxVwBM7o2_ogRE-26" value="" style="edgeStyle=segmentEdgeStyle;endArrow=classic;html=1;curved=0;rounded=0;endSize=8;startSize=8;fontSize=27;entryX=0.5;entryY=0;entryDx=0;entryDy=0;" parent="1" target="oOCuN6OxVwBM7o2_ogRE-19" edge="1">
                    <mxGeometry width="50" height="50" relative="1" as="geometry">
                        <mxPoint x="160" y="120" as="sourcePoint"/>
                        <mxPoint x="210" y="70" as="targetPoint"/>
                        <Array as="points">
                            <mxPoint x="380" y="120"/>
                        </Array>
                    </mxGeometry>
                </mxCell>
                <mxCell id="oOCuN6OxVwBM7o2_ogRE-76" style="edgeStyle=none;html=1;exitX=0.75;exitY=0;exitDx=0;exitDy=0;entryX=0.157;entryY=1.045;entryDx=0;entryDy=0;entryPerimeter=0;fontSize=27;" parent="1" source="oOCuN6OxVwBM7o2_ogRE-27" target="oOCuN6OxVwBM7o2_ogRE-73" edge="1">
                    <mxGeometry relative="1" as="geometry"/>
                </mxCell>
                <mxCell id="oOCuN6OxVwBM7o2_ogRE-27" value="" style="shape=trapezoid;perimeter=trapezoidPerimeter;whiteSpace=wrap;html=1;fixedSize=1;rotation=90;" parent="1" vertex="1">
                    <mxGeometry x="265" y="380" width="420" height="60" as="geometry"/>
                </mxCell>
                <mxCell id="oOCuN6OxVwBM7o2_ogRE-29" style="edgeStyle=none;html=1;exitX=0.5;exitY=1;exitDx=0;exitDy=0;entryX=0;entryY=0.5;entryDx=0;entryDy=0;fontSize=27;" parent="1" source="oOCuN6OxVwBM7o2_ogRE-28" target="oOCuN6OxVwBM7o2_ogRE-15" edge="1">
                    <mxGeometry relative="1" as="geometry"/>
                </mxCell>
                <mxCell id="oOCuN6OxVwBM7o2_ogRE-28" value="pld[5]" style="text;strokeColor=none;align=center;fillColor=none;html=1;verticalAlign=middle;whiteSpace=wrap;rounded=0;" parent="1" vertex="1">
                    <mxGeometry x="200" y="260" width="60" height="30" as="geometry"/>
                </mxCell>
                <mxCell id="oOCuN6OxVwBM7o2_ogRE-53" value="+" style="rounded=0;whiteSpace=wrap;html=1;fontSize=27;" parent="1" vertex="1">
                    <mxGeometry x="960" y="100" width="80" height="70" as="geometry"/>
                </mxCell>
                <mxCell id="oOCuN6OxVwBM7o2_ogRE-54" value="+" style="rounded=0;whiteSpace=wrap;html=1;fontSize=27;" parent="1" vertex="1">
                    <mxGeometry x="960" y="260" width="80" height="70" as="geometry"/>
                </mxCell>
                <mxCell id="oOCuN6OxVwBM7o2_ogRE-55" value="rs1,1'b1" style="text;strokeColor=none;align=center;fillColor=none;html=1;verticalAlign=middle;whiteSpace=wrap;rounded=0;" parent="1" vertex="1">
                    <mxGeometry x="880" y="100" width="60" height="30" as="geometry"/>
                </mxCell>
                <mxCell id="oOCuN6OxVwBM7o2_ogRE-56" value="~rs2,1'b1" style="text;strokeColor=none;align=center;fillColor=none;html=1;verticalAlign=middle;whiteSpace=wrap;rounded=0;" parent="1" vertex="1">
                    <mxGeometry x="880" y="140" width="60" height="30" as="geometry"/>
                </mxCell>
                <mxCell id="oOCuN6OxVwBM7o2_ogRE-57" value="rs1,1'b0" style="text;strokeColor=none;align=center;fillColor=none;html=1;verticalAlign=middle;whiteSpace=wrap;rounded=0;" parent="1" vertex="1">
                    <mxGeometry x="880" y="260" width="60" height="30" as="geometry"/>
                </mxCell>
                <mxCell id="oOCuN6OxVwBM7o2_ogRE-58" value="rs2,1'b0" style="text;strokeColor=none;align=center;fillColor=none;html=1;verticalAlign=middle;whiteSpace=wrap;rounded=0;" parent="1" vertex="1">
                    <mxGeometry x="880" y="300" width="60" height="30" as="geometry"/>
                </mxCell>
                <mxCell id="oOCuN6OxVwBM7o2_ogRE-85" style="edgeStyle=none;html=1;exitX=1.011;exitY=0.342;exitDx=0;exitDy=0;entryX=0.75;entryY=1;entryDx=0;entryDy=0;fontSize=27;exitPerimeter=0;" parent="1" source="oOCuN6OxVwBM7o2_ogRE-59" target="oOCuN6OxVwBM7o2_ogRE-79" edge="1">
                    <mxGeometry relative="1" as="geometry"/>
                </mxCell>
                <mxCell id="oOCuN6OxVwBM7o2_ogRE-59" value="+" style="rounded=0;whiteSpace=wrap;html=1;fontSize=27;" parent="1" vertex="1">
                    <mxGeometry x="960" y="430" width="80" height="70" as="geometry"/>
                </mxCell>
                <mxCell id="oOCuN6OxVwBM7o2_ogRE-60" value="rs1,1'b0" style="text;strokeColor=none;align=center;fillColor=none;html=1;verticalAlign=middle;whiteSpace=wrap;rounded=0;" parent="1" vertex="1">
                    <mxGeometry x="890" y="430" width="60" height="30" as="geometry"/>
                </mxCell>
                <mxCell id="oOCuN6OxVwBM7o2_ogRE-61" value="imm,1'b0" style="text;strokeColor=none;align=center;fillColor=none;html=1;verticalAlign=middle;whiteSpace=wrap;rounded=0;" parent="1" vertex="1">
                    <mxGeometry x="890" y="470" width="60" height="30" as="geometry"/>
                </mxCell>
                <mxCell id="oOCuN6OxVwBM7o2_ogRE-84" style="edgeStyle=none;html=1;exitX=0.5;exitY=0;exitDx=0;exitDy=0;entryX=0.167;entryY=0.833;entryDx=0;entryDy=0;entryPerimeter=0;fontSize=27;" parent="1" source="oOCuN6OxVwBM7o2_ogRE-62" target="oOCuN6OxVwBM7o2_ogRE-79" edge="1">
                    <mxGeometry relative="1" as="geometry"/>
                </mxCell>
                <mxCell id="oOCuN6OxVwBM7o2_ogRE-62" value="" style="shape=trapezoid;perimeter=trapezoidPerimeter;whiteSpace=wrap;html=1;fixedSize=1;rotation=90;" parent="1" vertex="1">
                    <mxGeometry x="1120" y="180" width="120" height="60" as="geometry"/>
                </mxCell>
                <mxCell id="oOCuN6OxVwBM7o2_ogRE-63" style="edgeStyle=none;html=1;exitX=0.5;exitY=1;exitDx=0;exitDy=0;entryX=0;entryY=0.5;entryDx=0;entryDy=0;fontSize=27;" parent="1" source="oOCuN6OxVwBM7o2_ogRE-64" target="oOCuN6OxVwBM7o2_ogRE-62" edge="1">
                    <mxGeometry relative="1" as="geometry"/>
                </mxCell>
                <mxCell id="oOCuN6OxVwBM7o2_ogRE-64" value="pld[30]" style="text;strokeColor=none;align=center;fillColor=none;html=1;verticalAlign=middle;whiteSpace=wrap;rounded=0;" parent="1" vertex="1">
                    <mxGeometry x="1150" y="90" width="60" height="30" as="geometry"/>
                </mxCell>
                <mxCell id="oOCuN6OxVwBM7o2_ogRE-65" value="" style="edgeStyle=elbowEdgeStyle;elbow=horizontal;endArrow=classic;html=1;curved=0;rounded=0;endSize=8;startSize=8;fontSize=27;entryX=0.25;entryY=1;entryDx=0;entryDy=0;" parent="1" target="oOCuN6OxVwBM7o2_ogRE-62" edge="1">
                    <mxGeometry width="50" height="50" relative="1" as="geometry">
                        <mxPoint x="1040" y="140" as="sourcePoint"/>
                        <mxPoint x="1090" y="90" as="targetPoint"/>
                    </mxGeometry>
                </mxCell>
                <mxCell id="oOCuN6OxVwBM7o2_ogRE-66" value="" style="edgeStyle=elbowEdgeStyle;elbow=horizontal;endArrow=classic;html=1;curved=0;rounded=0;endSize=8;startSize=8;fontSize=27;entryX=0.75;entryY=1;entryDx=0;entryDy=0;" parent="1" target="oOCuN6OxVwBM7o2_ogRE-62" edge="1">
                    <mxGeometry width="50" height="50" relative="1" as="geometry">
                        <mxPoint x="1040" y="300" as="sourcePoint"/>
                        <mxPoint x="1150" y="340" as="targetPoint"/>
                    </mxGeometry>
                </mxCell>
                <mxCell id="oOCuN6OxVwBM7o2_ogRE-68" style="edgeStyle=none;html=1;exitX=0.5;exitY=1;exitDx=0;exitDy=0;entryX=0;entryY=0.5;entryDx=0;entryDy=0;fontSize=27;" parent="1" source="oOCuN6OxVwBM7o2_ogRE-67" target="oOCuN6OxVwBM7o2_ogRE-27" edge="1">
                    <mxGeometry relative="1" as="geometry"/>
                </mxCell>
                <mxCell id="oOCuN6OxVwBM7o2_ogRE-67" value="funct3" style="text;strokeColor=none;align=center;fillColor=none;html=1;verticalAlign=middle;whiteSpace=wrap;rounded=0;" parent="1" vertex="1">
                    <mxGeometry x="445" y="150" width="60" height="30" as="geometry"/>
                </mxCell>
                <mxCell id="oOCuN6OxVwBM7o2_ogRE-72" style="edgeStyle=none;html=1;exitX=1;exitY=0.5;exitDx=0;exitDy=0;entryX=0.812;entryY=1.063;entryDx=0;entryDy=0;entryPerimeter=0;fontSize=27;" parent="1" source="oOCuN6OxVwBM7o2_ogRE-71" target="oOCuN6OxVwBM7o2_ogRE-27" edge="1">
                    <mxGeometry relative="1" as="geometry"/>
                </mxCell>
                <mxCell id="oOCuN6OxVwBM7o2_ogRE-71" value="other funct3" style="rounded=1;whiteSpace=wrap;html=1;fontSize=27;" parent="1" vertex="1">
                    <mxGeometry x="110" y="510" width="120" height="60" as="geometry"/>
                </mxCell>
                <mxCell id="oOCuN6OxVwBM7o2_ogRE-73" value="" style="shape=trapezoid;perimeter=trapezoidPerimeter;whiteSpace=wrap;html=1;fixedSize=1;rotation=90;" parent="1" vertex="1">
                    <mxGeometry x="400" y="630" width="420" height="60" as="geometry"/>
                </mxCell>
                <mxCell id="oOCuN6OxVwBM7o2_ogRE-75" style="edgeStyle=none;html=1;exitX=1;exitY=0.5;exitDx=0;exitDy=0;entryX=0.666;entryY=1.022;entryDx=0;entryDy=0;entryPerimeter=0;fontSize=27;" parent="1" source="oOCuN6OxVwBM7o2_ogRE-74" target="oOCuN6OxVwBM7o2_ogRE-73" edge="1">
                    <mxGeometry relative="1" as="geometry"/>
                </mxCell>
                <mxCell id="oOCuN6OxVwBM7o2_ogRE-74" value="other&lt;br&gt;opcode" style="rounded=1;whiteSpace=wrap;html=1;fontSize=27;" parent="1" vertex="1">
                    <mxGeometry x="110" y="700" width="120" height="60" as="geometry"/>
                </mxCell>
                <mxCell id="oOCuN6OxVwBM7o2_ogRE-77" style="edgeStyle=none;html=1;exitX=0.5;exitY=1;exitDx=0;exitDy=0;entryX=0;entryY=0.5;entryDx=0;entryDy=0;fontSize=27;" parent="1" source="oOCuN6OxVwBM7o2_ogRE-78" edge="1">
                    <mxGeometry relative="1" as="geometry">
                        <mxPoint x="610" y="460" as="targetPoint"/>
                    </mxGeometry>
                </mxCell>
                <mxCell id="oOCuN6OxVwBM7o2_ogRE-78" value="opcode" style="text;strokeColor=none;align=center;fillColor=none;html=1;verticalAlign=middle;whiteSpace=wrap;rounded=0;" parent="1" vertex="1">
                    <mxGeometry x="580" y="400" width="60" height="30" as="geometry"/>
                </mxCell>
                <mxCell id="oOCuN6OxVwBM7o2_ogRE-91" style="edgeStyle=none;html=1;exitX=0.75;exitY=0;exitDx=0;exitDy=0;entryX=0.175;entryY=1;entryDx=0;entryDy=0;entryPerimeter=0;fontSize=27;" parent="1" source="oOCuN6OxVwBM7o2_ogRE-79" target="oOCuN6OxVwBM7o2_ogRE-86" edge="1">
                    <mxGeometry relative="1" as="geometry"/>
                </mxCell>
                <mxCell id="oOCuN6OxVwBM7o2_ogRE-79" value="" style="shape=trapezoid;perimeter=trapezoidPerimeter;whiteSpace=wrap;html=1;fixedSize=1;rotation=90;" parent="1" vertex="1">
                    <mxGeometry x="1130" y="320" width="420" height="60" as="geometry"/>
                </mxCell>
                <mxCell id="oOCuN6OxVwBM7o2_ogRE-80" style="edgeStyle=none;html=1;exitX=0.5;exitY=1;exitDx=0;exitDy=0;entryX=0;entryY=0.5;entryDx=0;entryDy=0;fontSize=27;" parent="1" source="oOCuN6OxVwBM7o2_ogRE-81" target="oOCuN6OxVwBM7o2_ogRE-79" edge="1">
                    <mxGeometry relative="1" as="geometry"/>
                </mxCell>
                <mxCell id="oOCuN6OxVwBM7o2_ogRE-81" value="opcode" style="text;strokeColor=none;align=center;fillColor=none;html=1;verticalAlign=middle;whiteSpace=wrap;rounded=0;" parent="1" vertex="1">
                    <mxGeometry x="1310" y="90" width="60" height="30" as="geometry"/>
                </mxCell>
                <mxCell id="oOCuN6OxVwBM7o2_ogRE-86" value="" style="shape=trapezoid;perimeter=trapezoidPerimeter;whiteSpace=wrap;html=1;fixedSize=1;rotation=90;" parent="1" vertex="1">
                    <mxGeometry x="1280" y="561" width="420" height="60" as="geometry"/>
                </mxCell>
                <mxCell id="oOCuN6OxVwBM7o2_ogRE-87" style="edgeStyle=none;html=1;exitX=0.5;exitY=1;exitDx=0;exitDy=0;entryX=0;entryY=0.5;entryDx=0;entryDy=0;fontSize=27;" parent="1" source="oOCuN6OxVwBM7o2_ogRE-88" edge="1">
                    <mxGeometry relative="1" as="geometry">
                        <mxPoint x="1490" y="390" as="targetPoint"/>
                    </mxGeometry>
                </mxCell>
                <mxCell id="oOCuN6OxVwBM7o2_ogRE-88" value="funct3" style="text;strokeColor=none;align=center;fillColor=none;html=1;verticalAlign=middle;whiteSpace=wrap;rounded=0;" parent="1" vertex="1">
                    <mxGeometry x="1460" y="330" width="60" height="30" as="geometry"/>
                </mxCell>
                <mxCell id="oOCuN6OxVwBM7o2_ogRE-90" style="edgeStyle=none;html=1;exitX=1;exitY=0.5;exitDx=0;exitDy=0;entryX=0.903;entryY=0.962;entryDx=0;entryDy=0;entryPerimeter=0;fontSize=27;" parent="1" source="oOCuN6OxVwBM7o2_ogRE-89" target="oOCuN6OxVwBM7o2_ogRE-86" edge="1">
                    <mxGeometry relative="1" as="geometry"/>
                </mxCell>
                <mxCell id="oOCuN6OxVwBM7o2_ogRE-89" value="other&lt;br&gt;func3" style="rounded=1;whiteSpace=wrap;html=1;fontSize=27;" parent="1" vertex="1">
                    <mxGeometry x="980" y="726" width="120" height="60" as="geometry"/>
                </mxCell>
                <mxCell id="oOCuN6OxVwBM7o2_ogRE-92" style="edgeStyle=none;html=1;exitX=1;exitY=0.5;exitDx=0;exitDy=0;entryX=0.976;entryY=1;entryDx=0;entryDy=0;entryPerimeter=0;fontSize=27;" parent="1" source="oOCuN6OxVwBM7o2_ogRE-93" target="oOCuN6OxVwBM7o2_ogRE-79" edge="1">
                    <mxGeometry relative="1" as="geometry">
                        <mxPoint x="1290.0000000000005" y="549.7200000000003" as="targetPoint"/>
                    </mxGeometry>
                </mxCell>
                <mxCell id="oOCuN6OxVwBM7o2_ogRE-93" value="other&lt;br&gt;opcode" style="rounded=1;whiteSpace=wrap;html=1;fontSize=27;" parent="1" vertex="1">
                    <mxGeometry x="940" y="520" width="120" height="60" as="geometry"/>
                </mxCell>
            </root>
        </mxGraphModel>
    </diagram>
</mxfile>